<svg width="18" height="27" viewBox="0 0 18 27" fill="none" xmlns="http://www.w3.org/2000/svg">
<path d="M17.052 26.082C16.968 26.082 16.856 26.054 16.716 25.998C16.604 25.942 16.478 25.886 16.338 25.83L1.21799 15.54C0.82599 15.26 0.51799 14.994 0.29399 14.742C0.0979903 14.462 -9.71556e-06 14.112 -9.71556e-06 13.692V12.39C-9.71556e-06 11.97 0.0979903 11.634 0.29399 11.382C0.51799 11.13 0.82599 10.864 1.21799 10.584L16.338 0.293974C16.478 0.209975 16.604 0.139976 16.716 0.0839746C16.856 0.0279753 16.968 -2.43187e-05 17.052 -2.43187e-05C17.304 -2.43187e-05 17.514 0.0839754 17.682 0.251975C17.85 0.419974 17.934 0.629974 17.934 0.881974V5.37598C17.934 5.82398 17.808 6.17398 17.556 6.42598C17.304 6.64998 17.038 6.85998 16.758 7.05598L7.60199 13.062L16.758 19.11C17.038 19.278 17.304 19.474 17.556 19.698C17.808 19.922 17.934 20.258 17.934 20.706V25.242C17.934 25.494 17.85 25.704 17.682 25.872C17.514 26.012 17.304 26.082 17.052 26.082Z" fill="#D77CE6"/>
</svg>
