<svg width="18" height="27" viewBox="0 0 18 27" fill="none" xmlns="http://www.w3.org/2000/svg">
<path d="M0.882092 5.35196e-05C0.966092 5.35269e-05 1.07809 0.0280535 1.21809 0.0840536C1.33009 0.140054 1.45609 0.196054 1.59609 0.252054L16.7161 10.5421C17.1081 10.8221 17.4161 11.0881 17.6401 11.3401C17.8361 11.6201 17.9341 11.9701 17.9341 12.3901L17.9341 13.6921C17.9341 14.1121 17.8361 14.4481 17.6401 14.7001C17.4161 14.9521 17.1081 15.2181 16.7161 15.4981L1.59609 25.7881C1.45609 25.8721 1.33009 25.9421 1.21809 25.9981C1.07809 26.0541 0.96609 26.0821 0.88209 26.0821C0.63009 26.0821 0.42009 25.9981 0.25209 25.8301C0.0840901 25.6621 9.03272e-05 25.4521 9.03493e-05 25.2001L9.07422e-05 20.7061C9.07813e-05 20.2581 0.126091 19.9081 0.378091 19.6561C0.630091 19.4321 0.896091 19.2221 1.17609 19.0261L10.3321 13.0201L1.17609 6.97205C0.896092 6.80405 0.630092 6.60805 0.378092 6.38405C0.126092 6.16005 9.20432e-05 5.82405 9.20823e-05 5.37605L9.24789e-05 0.840053C9.25009e-05 0.588053 0.0840923 0.378053 0.252092 0.210053C0.420092 0.0700535 0.630092 5.34975e-05 0.882092 5.35196e-05Z" fill="#753DCD"/>
</svg>
